{"title":"Red Data Girl","uid":10485810,"size":841976066,"categoryP":"video","categoryS":"tv_shows","magnet":"?xt=urn:btih:a8620a76d61f38916a647d84f8abf66195824927&amp;dn=Red+Data+Girl&amp;tr=udp%3A%2F%2Ftracker.openbittorrent.com%3A80&amp;tr=udp%3A%2F%2Fopen.demonii.com%3A1337&amp;tr=udp%3A%2F%2Ftracker.coppersurfer.tk%3A6969&amp;tr=udp%3A%2F%2Fexodus.desync.com%3A6969","seeders":2,"leechers":1,"uploader":"p7trick","files":-1,"time":1404432081,"description":"justdubs\n\nRed Data Girl eps 1-12 ENGLISH DUBBED\n_________________________________________________________\n\nFormat                                   : MPEG-4\nFormat profile                           : Base Media\nCodec ID                                 : isom\nFile size                                : 145 MiB\nDuration                                 : 25mn 7s\nOverall bit rate mode                    : Variable\nOverall bit rate                         : 808 Kbps\n\nVideo\nID                                       : 1\nFormat                                   : AVC\nFormat/Info                              : Advanced Video Codec\nFormat profile                           : &lt;a class=&quot;__cf_email__&quot; href=&quot;/cdn-cgi/l/email-protection&quot; data-cfemail=&quot;89cbe8faece5e0e7ecc9c5baa7b9&quot;&gt;[email&amp;#160;protected]&lt;/a&gt;&lt;script cf-hash='f9e31' type=&quot;text/javascript&quot;&gt;\n/* &lt;![CDATA[ */!function(){try{var t=&quot;currentScript&quot;in document?document.currentScript:function(){for(var t=document.getElementsByTagName(&quot;script&quot;),e=t.length;e--;)if(t[e].getAttribute(&quot;cf-hash&quot;))return t[e]}();if(t&amp;&amp;t.previousSibling){var e,r,n,i,c=t.previousSibling,a=c.getAttribute(&quot;data-cfemail&quot;);if(a){for(e=&quot;&quot;,r=parseInt(a.substr(0,2),16),n=2;a.length-n;n+=2)i=parseInt(a.substr(n,2),16)^r,e+=String.fromCharCode(i);e=document.createTextNode(e),c.parentNode.replaceChild(e,c)}}}catch(u){}}();/* ]]&gt; */&lt;/script&gt;\nFormat settings, CABAC                   : No\nFormat settings, ReFrames                : 3 frames\nCodec ID                                 : avc1\nCodec ID/Info                            : Advanced Video Coding\nDuration                                 : 25mn 7s\nBit rate                                 : 721 Kbps\nMaximum bit rate                         : 10.3 Mbps\nWidth                                    : 854 pixels\nHeight                                   : 480 pixels\nDisplay aspect ratio                     : 16:9\nFrame rate mode                          : Constant\nFrame rate                               : 24.390 fps\nColor space                              : YUV\nChroma subsampling                       : 4:2:0\nBit depth                                : 8 bits\nScan type                                : Progressive\nBits/(Pixel*Frame)                       : 0.072\nStream size                              : 130 MiB (89%)\n\nAudio\nID                                       : 2\nFormat                                   : AAC\nFormat/Info                              : Advanced Audio Codec\nFormat profile                           : LC\nCodec ID                                 : 40\nDuration                                 : 25mn 7s\nBit rate mode                            : Variable\nBit rate                                 : 84.4 Kbps\nMaximum bit rate                         : 114 Kbps\nChannel(s)                               : 2 channels\nChannel positions                        : Front: L R\nSampling rate                            : 44.1 KHz\nCompression mode                         : Lossy\nStream size                              : 15.2 MiB (10%)\nLanguage                                 : English\n_________________________________________________________\n\nSummary:\nSuzuhara Izumiko, is a girl raised within the confines of Tamakura Shrine, one of the Kumano shrines that are part of a World Heritage site. However, after Izumiko spent practically her entire life at Kumano until middle school, it was decided that she and her childhood friend Sagara Miyuki would enrol in Houjou High School in Tokyo. On a school trip to Tokyo, a mysterious entity known as Himegami appears and a terrible incident occurs. Izumiko's family hides a great secret that Izumiko is to learn about.\n\nFor updates/requests:\nTwitter - @p7tricktorrent\nFacebook - /p7tricktorrent\nTPB - /user/p7trick/\nKAT - /user/iPirate7\n_________________________________________________________\n\nSEED!\n\nshare ratio:\n&quot;Scumbag = 0.1:1\nLeecher = 0.999:1\nMinimum = 1:1\nGood = 3:1\nGreat = 5:1\nAwesome = 10:1\n1337 = 100:1&quot;\n\t\t\n**Pls comment if episodes are not in order","torrent":{"xt":"urn:btih:a8620a76d61f38916a647d84f8abf66195824927","amp;dn":"Red+Data+Girl","amp;tr":["udp%3A%2F%2Ftracker.openbittorrent.com%3A80","udp%3A%2F%2Fopen.demonii.com%3A1337","udp%3A%2F%2Ftracker.coppersurfer.tk%3A6969","udp%3A%2F%2Fexodus.desync.com%3A6969"],"infoHash":"a8620a76d61f38916a647d84f8abf66195824927","infoHashBuffer":{"type":"Buffer","data":[168,98,10,118,214,31,56,145,106,100,125,132,248,171,246,97,149,130,73,39]},"announce":[],"urlList":[]}}